<svg width="338" height="312" viewBox="0 0 338 312" fill="none" xmlns="http://www.w3.org/2000/svg">
<path d="M49.4981 285.556C115.499 319.798 222.501 319.798 288.502 285.556C354.503 251.314 354.495 195.8 288.502 161.558C222.508 127.316 115.499 127.316 49.4981 161.558C-16.5033 195.8 -16.4954 251.314 49.4981 285.556Z" fill="#F5F5F5"/>
<path d="M289.408 201.159C302.271 201.159 312.7 196.224 312.7 190.136C312.7 184.048 302.271 179.113 289.408 179.113C276.544 179.113 266.115 184.048 266.115 190.136C266.115 196.224 276.544 201.159 289.408 201.159Z" fill="#E6E6E6"/>
<path d="M49.0884 265.645C60.8822 265.645 70.443 261.12 70.443 255.538C70.443 249.956 60.8822 245.43 49.0884 245.43C37.2946 245.43 27.7339 249.956 27.7339 255.538C27.7339 261.12 37.2946 265.645 49.0884 265.645Z" fill="#E6E6E6"/>
<path d="M207.637 285.079C219.909 285.079 229.858 280.368 229.858 274.556C229.858 268.745 219.909 264.034 207.637 264.034C195.364 264.034 185.416 268.745 185.416 274.556C185.416 280.368 195.364 285.079 207.637 285.079Z" fill="#E6E6E6"/>
<path d="M97.3431 234.728C109.615 234.728 119.564 230.017 119.564 224.206C119.564 218.395 109.615 213.684 97.3431 213.684C85.0708 213.684 75.1221 218.395 75.1221 224.206C75.1221 230.017 85.0708 234.728 97.3431 234.728Z" fill="#E6E6E6"/>
<path d="M228.109 164.406C228.652 157.92 243.619 133.59 248.195 129.819C252.772 126.048 260.854 116.52 257.372 111.106C253.89 105.692 243.658 108.102 234.048 124.977C226.597 138.065 224.281 167.011 224.281 167.011L228.109 164.406Z" fill="#02897A"/>
<path d="M226.061 163.795H225.998C225.947 163.788 225.898 163.77 225.854 163.743C225.81 163.717 225.772 163.682 225.742 163.64C225.711 163.598 225.69 163.551 225.679 163.501C225.667 163.451 225.666 163.4 225.675 163.349C229.905 136.187 238.892 119.242 253.15 111.544C253.242 111.494 253.35 111.483 253.45 111.512C253.5 111.527 253.546 111.551 253.587 111.583C253.627 111.615 253.661 111.655 253.685 111.701C253.71 111.746 253.726 111.795 253.731 111.847C253.737 111.898 253.732 111.95 253.718 111.999C253.703 112.048 253.679 112.094 253.646 112.134C253.614 112.175 253.573 112.208 253.528 112.232C239.499 119.805 230.645 136.57 226.447 163.475C226.43 163.564 226.383 163.646 226.312 163.704C226.242 163.763 226.153 163.795 226.061 163.795Z" fill="white"/>
<path d="M229.613 132.941C229.613 132.941 241.626 112.319 251.574 102.876C257.088 97.6423 260.475 94.2705 260.176 90.3119C259.956 87.3078 257.443 85.704 252.039 87.0262C241.271 89.6548 235.498 100.49 231.78 112.624C229.141 121.167 229.613 132.941 229.613 132.941Z" fill="#37474F"/>
<path opacity="0.2" d="M229.613 132.941C229.613 132.941 241.626 112.319 251.574 102.876C257.088 97.6423 260.475 94.2705 260.176 90.3119C259.956 87.3078 257.443 85.704 252.039 87.0262C241.271 89.6548 235.498 100.49 231.78 112.624C229.141 121.167 229.613 132.941 229.613 132.941Z" fill="#00FFE3"/>
<path d="M231.008 129.553H230.953C230.849 129.536 230.755 129.479 230.694 129.394C230.632 129.309 230.606 129.203 230.622 129.099C234.899 102.297 251.157 92.2052 256.041 89.7487C256.134 89.7023 256.242 89.6943 256.34 89.7266C256.439 89.7588 256.521 89.8286 256.569 89.9208C256.593 89.9663 256.608 90.0162 256.612 90.0675C256.616 90.1188 256.61 90.1705 256.594 90.2194C256.578 90.2683 256.552 90.3135 256.518 90.3523C256.484 90.391 256.442 90.4225 256.395 90.4449C251.598 92.8623 235.624 102.782 231.402 129.225C231.387 129.317 231.338 129.401 231.266 129.462C231.194 129.522 231.102 129.554 231.008 129.553Z" fill="white"/>
<path d="M296.899 72.0681L294.299 67.2177L296.387 61.2252V57.5561L289.991 61.2252V64.8942L292.74 69.6351C292.783 69.7093 292.849 69.7671 292.929 69.7994L296.899 72.0681Z" fill="#11B5E4"/>
<path opacity="0.1" d="M296.899 72.0681L294.299 67.2177L296.387 61.2252V57.5561L289.991 61.2252V64.8942L292.74 69.6351C292.783 69.7093 292.849 69.7671 292.929 69.7994L296.899 72.0681Z" fill="black"/>
<path d="M282.058 49.2947L299.671 39.1246C300.266 38.8274 300.923 38.6726 301.589 38.6726C302.255 38.6726 302.912 38.8274 303.507 39.1246L305.083 40.0242C305.643 40.3845 306.109 40.8715 306.443 41.4454C306.778 42.0193 306.97 42.6636 307.005 43.3256V57.5013C306.968 58.1629 306.775 58.8065 306.441 59.3801C306.107 59.9537 305.642 60.4411 305.083 60.8027L287.454 70.9729C286.859 71.2701 286.202 71.4249 285.536 71.4249C284.87 71.4249 284.213 71.2701 283.618 70.9729L282.043 70.0732C281.484 69.7116 281.02 69.2241 280.687 68.6504C280.354 68.0766 280.163 67.433 280.128 66.7718V52.5805C280.169 51.9211 280.365 51.2803 280.7 50.7097C281.035 50.139 281.5 49.6544 282.058 49.2947Z" fill="#11B5E4"/>
<path opacity="0.3" d="M282.058 49.2947L299.671 39.1246C300.266 38.8274 300.923 38.6726 301.589 38.6726C302.255 38.6726 302.912 38.8274 303.507 39.1246L305.083 40.0242C305.643 40.3845 306.109 40.8715 306.443 41.4454C306.778 42.0193 306.97 42.6636 307.005 43.3256V57.5013C306.968 58.1629 306.775 58.8065 306.441 59.3801C306.107 59.9537 305.642 60.4411 305.083 60.8027L287.454 70.9729C286.859 71.2701 286.202 71.4249 285.536 71.4249C284.87 71.4249 284.213 71.2701 283.618 70.9729L282.043 70.0732C281.484 69.7116 281.02 69.2241 280.687 68.6504C280.354 68.0766 280.163 67.433 280.128 66.7718V52.5805C280.169 51.9211 280.365 51.2803 280.7 50.7097C281.035 50.139 281.5 49.6544 282.058 49.2947Z" fill="white"/>
<path d="M287.462 70.9572C286.399 71.5596 285.54 71.0746 285.54 69.8542V55.6785C285.577 55.0169 285.77 54.3733 286.104 53.7997C286.438 53.2261 286.903 52.7387 287.462 52.3771L305.091 42.2069C306.154 41.5967 307.013 42.0896 307.013 43.31V57.4857C306.976 58.1472 306.783 58.7909 306.449 59.3645C306.115 59.9381 305.65 60.4254 305.091 60.7871" fill="#11B5E4"/>
<path d="M280.145 66.7562C280.179 67.4173 280.371 68.061 280.703 68.6347C281.036 69.2085 281.5 69.696 282.059 70.0575L283.634 70.9572C284.175 71.2267 284.766 71.3793 285.371 71.4049C285.975 71.4305 286.578 71.3286 287.139 71.1059C286.241 71.4501 285.564 70.9416 285.564 69.8541V55.6785C285.589 55.015 285.785 54.3688 286.131 53.8009L280.727 50.6716C280.384 51.2403 280.191 51.8864 280.168 52.5492L280.145 66.7562Z" fill="#11B5E4"/>
<path opacity="0.1" d="M280.145 66.7562C280.179 67.4173 280.371 68.061 280.703 68.6347C281.036 69.2085 281.5 69.696 282.059 70.0575L283.634 70.9572C284.175 71.2267 284.766 71.3793 285.371 71.4049C285.975 71.4305 286.578 71.3286 287.139 71.1059C286.241 71.4501 285.564 70.9416 285.564 69.8541V55.6785C285.589 55.015 285.785 54.3688 286.131 53.8009L280.727 50.6716C280.384 51.2403 280.191 51.8864 280.168 52.5492L280.145 66.7562Z" fill="black"/>
<path d="M294 67.1943L296.749 71.9274C296.79 71.994 296.849 72.0479 296.919 72.0829C296.989 72.1179 297.067 72.1326 297.145 72.1252C297.224 72.1179 297.298 72.0888 297.36 72.0414C297.423 71.9939 297.47 71.93 297.497 71.857L300.404 63.5253V59.8562L294 63.5253V67.1943Z" fill="#11B5E4"/>
<path d="M296.284 62.3517L294.315 61.8353C292.44 61.3425 290.203 60.2707 290.203 57.869C290.298 56.8904 290.623 55.9478 291.152 55.1173C291.682 54.2869 292.401 53.592 293.252 53.089C293.53 52.891 293.857 52.7709 294.199 52.7413C294.54 52.7117 294.883 52.7737 295.192 52.9208C295.501 53.0678 295.765 53.2946 295.956 53.5774C296.146 53.8602 296.257 54.1887 296.276 54.5285C296.473 52.9638 297.749 50.5073 299.301 49.6155C300.987 48.6532 302.349 49.2243 302.349 50.8985C302.349 53.2924 300.12 56.938 298.246 59.5823L296.284 62.3517Z" fill="white"/>
<path d="M35.8707 109.299L53.4994 99.1677C54.0934 98.8669 54.7507 98.71 55.4175 98.71C56.0843 98.71 56.7415 98.8669 57.3355 99.1677L58.9109 100.06C59.468 100.422 59.9315 100.91 60.264 101.484C60.5964 102.057 60.7886 102.7 60.825 103.361V117.537C60.7886 118.197 60.5964 118.84 60.264 119.414C59.9315 119.987 59.468 120.475 58.9109 120.838L41.3058 130.969C40.7105 131.27 40.0519 131.427 39.3839 131.427C38.7158 131.427 38.0573 131.27 37.4619 130.969L35.8865 130.077C35.3204 129.714 34.8494 129.223 34.5125 128.643C34.1755 128.064 33.9823 127.413 33.9487 126.745V112.6C33.9835 111.938 34.1759 111.294 34.51 110.72C34.8441 110.146 35.3104 109.659 35.8707 109.299Z" fill="#FF7800"/>
<path opacity="0.3" d="M35.8707 109.299L53.4994 99.1677C54.0934 98.8669 54.7507 98.71 55.4175 98.71C56.0843 98.71 56.7415 98.8669 57.3355 99.1677L58.9109 100.06C59.468 100.422 59.9315 100.91 60.264 101.484C60.5964 102.057 60.7886 102.7 60.825 103.361V117.537C60.7886 118.197 60.5964 118.84 60.264 119.414C59.9315 119.987 59.468 120.475 58.9109 120.838L41.3058 130.969C40.7105 131.27 40.0519 131.427 39.3839 131.427C38.7158 131.427 38.0573 131.27 37.4619 130.969L35.8865 130.077C35.3204 129.714 34.8494 129.223 34.5125 128.643C34.1755 128.064 33.9823 127.413 33.9487 126.745V112.6C33.9835 111.938 34.1759 111.294 34.51 110.72C34.8441 110.146 35.3104 109.659 35.8707 109.299Z" fill="white"/>
<path d="M50.703 132.088L48.1036 127.23L50.1989 121.237V117.568L43.7949 121.268V124.937L46.5519 129.631C46.5935 129.704 46.6569 129.761 46.733 129.796L50.703 132.088Z" fill="#FF7800"/>
<path opacity="0.1" d="M50.703 132.088L48.1036 127.23L50.1989 121.237V117.568L43.7949 121.268V124.937L46.5519 129.631C46.5935 129.704 46.6569 129.761 46.733 129.796L50.703 132.088Z" fill="black"/>
<path d="M41.3058 130.969C40.2424 131.579 39.3838 131.086 39.3838 129.866V115.69C39.4204 115.03 39.6136 114.387 39.9476 113.815C40.2816 113.243 40.747 112.757 41.3058 112.397L58.9424 102.227C59.9979 101.624 60.8565 102.117 60.8565 103.33V117.505C60.8201 118.166 60.6279 118.809 60.2954 119.382C59.9629 119.956 59.4995 120.444 58.9424 120.807" fill="#FF7800"/>
<path d="M33.9487 126.745C33.9854 127.406 34.1785 128.05 34.5125 128.623C34.8464 129.197 35.3117 129.684 35.8707 130.046L37.4461 130.938C37.988 131.207 38.5807 131.36 39.1859 131.387C39.7912 131.414 40.3953 131.314 40.9593 131.094C40.0534 131.431 39.3839 130.922 39.3839 129.835V115.69C39.407 115.028 39.5994 114.381 39.9431 113.813L34.5474 110.723C34.2009 111.291 34.0058 111.937 33.9802 112.6L33.9487 126.745Z" fill="#FF7800"/>
<path opacity="0.1" d="M33.9487 126.745C33.9854 127.406 34.1785 128.05 34.5125 128.623C34.8464 129.197 35.3117 129.684 35.8707 130.046L37.4461 130.938C37.988 131.207 38.5807 131.36 39.1859 131.387C39.7912 131.414 40.3953 131.314 40.9593 131.094C40.0534 131.431 39.3839 130.922 39.3839 129.835V115.69C39.407 115.028 39.5994 114.381 39.9431 113.813L34.5474 110.723C34.2009 111.291 34.0058 111.937 33.9802 112.6L33.9487 126.745Z" fill="black"/>
<path d="M47.812 127.206L50.5611 131.9C50.6005 131.967 50.6584 132.022 50.7281 132.057C50.7977 132.093 50.8761 132.108 50.954 132.1C51.0319 132.093 51.106 132.063 51.1676 132.015C51.2292 131.967 51.2757 131.903 51.3015 131.83L54.2081 123.498V119.829L47.812 123.498V127.206Z" fill="#FF7800"/>
<path d="M43.4327 118.741C42.9014 119.081 42.4601 119.543 42.1461 120.087C41.8322 120.632 41.6548 121.244 41.6289 121.871C41.6289 123.013 42.4166 123.435 43.4327 122.903C43.9605 122.56 44.3991 122.097 44.7126 121.554C45.0261 121.01 45.2056 120.4 45.2366 119.774C45.2444 118.632 44.4567 118.139 43.4327 118.741Z" fill="white"/>
<path d="M50.0886 114.916C49.5584 115.257 49.1177 115.719 48.8027 116.263C48.4877 116.808 48.3074 117.418 48.2769 118.045C48.2769 119.187 49.0646 119.649 50.0886 119.078C50.6164 118.734 51.0549 118.272 51.3684 117.728C51.6819 117.184 51.8614 116.574 51.8924 115.949C51.8924 114.806 51.0811 114.345 50.0886 114.916Z" fill="white"/>
<path d="M56.7369 111.098C56.2091 111.442 55.7706 111.904 55.4571 112.448C55.1436 112.992 54.9641 113.602 54.9331 114.227C54.9331 115.37 55.7208 115.792 56.7369 115.26C57.2683 114.92 57.7096 114.459 58.0236 113.914C58.3375 113.37 58.5149 112.758 58.5408 112.131C58.5408 110.981 57.7373 110.519 56.7369 111.098Z" fill="white"/>
<path d="M222.8 6.60359L146.22 50.4918C145.227 51.1351 144.401 52.0015 143.809 53.0209C143.216 54.0403 142.874 55.1839 142.809 56.3592V224.707C142.809 226.866 144.337 227.742 146.22 226.663L222.8 182.774C223.792 182.131 224.618 181.265 225.211 180.245C225.804 179.226 226.146 178.082 226.211 176.907V8.55939C226.211 6.40019 224.683 5.52399 222.8 6.60359Z" fill="#37474F"/>
<path d="M146.22 50.4918L222.8 6.60359C224.486 5.64133 225.88 6.24372 226.156 7.92571C226 6.86747 225.621 5.85394 225.042 4.95186C224.464 4.04977 223.7 3.27957 222.8 2.69198L220.02 1.12734C218.963 0.594736 217.794 0.317169 216.609 0.317169C215.424 0.317169 214.255 0.594736 213.198 1.12734L136.618 44.9921C135.61 45.6162 134.781 46.4861 134.208 47.519L143.81 52.9952C144.386 51.971 145.215 51.1094 146.22 50.4918Z" fill="#455A64"/>
<path d="M133.207 219.199C133.27 220.375 133.612 221.519 134.205 222.539C134.798 223.558 135.624 224.424 136.618 225.067L139.398 226.631C140.36 227.113 141.413 227.386 142.488 227.433C143.563 227.48 144.637 227.3 145.637 226.905C144.062 227.508 142.809 226.608 142.809 224.676V56.3357C142.849 55.1554 143.193 54.0051 143.809 52.9952L134.207 47.519C133.593 48.5295 133.248 49.6795 133.207 50.8595V219.199Z" fill="#263238"/>
<path d="M148.055 71.458L220.965 29.6742C222.091 29.0249 223.013 29.549 223.013 30.8477V158.296C222.973 159.001 222.766 159.686 222.411 160.298C222.055 160.909 221.56 161.429 220.965 161.816L148.055 203.592C146.929 204.241 146.007 203.717 146.007 202.419V74.9784C146.045 74.2728 146.25 73.5861 146.606 72.9743C146.962 72.3625 147.459 71.8429 148.055 71.458Z" fill="#FAFAFA"/>
<path d="M183.738 35.0801C183.389 35.3072 183.1 35.6125 182.892 35.9712C182.684 36.3299 182.563 36.7321 182.541 37.1454C182.541 37.9277 183.076 38.2172 183.738 37.8338C184.087 37.6076 184.378 37.3026 184.586 36.9437C184.794 36.5848 184.914 36.1821 184.935 35.7685C184.935 35.0097 184.4 34.7046 183.738 35.0801Z" fill="#263238"/>
<path d="M172.403 47.1905C171.711 47.6473 171.137 48.2591 170.727 48.9765C170.316 49.6939 170.081 50.497 170.04 51.3211C170.04 52.8388 171.111 53.4569 172.403 52.698C173.103 52.2459 173.685 51.6362 174.102 50.9184C174.52 50.2006 174.761 49.3951 174.806 48.5674C174.806 47.0497 173.726 46.4316 172.403 47.1905Z" fill="#263238"/>
<path d="M178.271 46.6741C178.271 47.6911 179.059 48.0744 179.981 47.5346L195.735 38.4832C196.221 38.1791 196.628 37.7658 196.924 37.2765C197.219 36.7873 197.395 36.2359 197.436 35.6668C197.436 34.6576 196.649 34.2743 195.735 34.8141L179.981 43.8655C179.494 44.1674 179.085 44.5791 178.788 45.067C178.491 45.5549 178.314 46.1055 178.271 46.6741Z" fill="#263238"/>
<path d="M138.516 76.4962C139.076 76.8564 139.543 77.3435 139.877 77.9173C140.211 78.4912 140.403 79.1356 140.438 79.7976C140.438 81.0102 139.58 81.5031 138.516 80.9007C137.958 80.5365 137.495 80.0473 137.162 79.4725C136.83 78.8977 136.638 78.2534 136.602 77.5914C136.618 76.3788 137.461 75.8938 138.516 76.4962Z" fill="#37474F"/>
<path d="M138.516 91.1802C139.075 91.5418 139.54 92.0292 139.874 92.6028C140.208 93.1764 140.401 93.82 140.438 94.4816C140.438 95.702 139.579 96.1949 138.516 95.5847C137.967 95.2239 137.51 94.7415 137.18 94.1754C136.851 93.6093 136.658 92.975 136.618 92.3224C136.618 91.0707 137.461 90.5778 138.516 91.1802Z" fill="#37474F"/>
<path d="M137.925 76.7856C138.484 77.1472 138.95 77.6346 139.284 78.2081C139.618 78.7817 139.811 79.4254 139.847 80.087C139.847 81.3074 138.989 81.8003 137.925 81.19C137.367 80.8275 136.903 80.3399 136.569 79.7665C136.235 79.1931 136.041 78.5499 136.003 77.8886C136.003 76.676 136.87 76.1832 137.925 76.7856Z" fill="#455A64"/>
<path d="M137.925 91.4776C138.484 91.8392 138.95 92.3266 139.284 92.9002C139.618 93.4738 139.811 94.1174 139.847 94.779C139.847 95.9994 138.989 96.4923 137.925 95.8821C137.367 95.5195 136.903 95.032 136.569 94.4586C136.235 93.8852 136.041 93.242 136.003 92.5807C136.003 91.3603 136.87 90.8674 137.925 91.4776Z" fill="#455A64"/>
<path d="M184.51 188.329C183.133 189.222 181.988 190.425 181.166 191.84C180.345 193.255 179.872 194.842 179.784 196.473C179.784 199.477 181.903 200.69 184.51 199.195C185.887 198.301 187.032 197.096 187.853 195.68C188.675 194.264 189.148 192.676 189.236 191.044C189.244 188.04 187.125 186.827 184.51 188.329Z" fill="#263238"/>
<path d="M163.171 201.777C162.502 201.777 162.431 200.995 162.431 200.713V73.2731C162.472 72.6367 162.66 72.0184 162.981 71.4661C163.302 70.9139 163.747 70.4426 164.282 70.089L237.191 28.3052C237.409 28.176 237.655 28.1008 237.908 28.0862C238.578 28.0862 238.648 28.8216 238.648 29.1423V156.59C238.608 157.226 238.42 157.843 238.098 158.394C237.777 158.945 237.332 159.415 236.797 159.766L163.888 201.55C163.673 201.686 163.426 201.764 163.171 201.777Z" fill="white" stroke="#141414" stroke-miterlimit="10"/>
<path d="M237.908 28.4773C238.207 28.4773 238.254 28.8919 238.254 29.1423V156.59C238.215 157.157 238.045 157.708 237.758 158.2C237.472 158.693 237.076 159.113 236.6 159.43L163.691 201.214C163.534 201.312 163.356 201.371 163.171 201.386C162.872 201.386 162.824 200.963 162.824 200.713V73.273C162.864 72.7058 163.034 72.1551 163.32 71.6629C163.607 71.1707 164.003 70.7501 164.478 70.4332L237.388 28.6494C237.543 28.5479 237.722 28.4886 237.908 28.4773ZM237.908 27.695C237.584 27.7057 237.27 27.8001 236.994 27.9688L164.085 69.7526C163.488 70.1375 162.992 70.6571 162.636 71.2689C162.28 71.8807 162.074 72.5674 162.037 73.273V200.713C162.037 201.636 162.501 202.168 163.171 202.168C163.495 202.154 163.81 202.057 164.085 201.887L236.994 160.111C237.59 159.725 238.086 159.206 238.442 158.594C238.798 157.982 239.004 157.296 239.042 156.59V29.1423C239.042 28.227 238.577 27.695 237.908 27.695Z" fill="#37474F" stroke="#141414" stroke-miterlimit="10"/>
<path d="M239.019 29.1423C239.019 27.8436 238.105 27.3195 236.971 27.9688L164.061 69.7526C163.465 70.1375 162.968 70.6571 162.612 71.2689C162.256 71.8807 162.051 72.5674 162.013 73.273V83.717L239.019 39.5863V29.1423Z" fill="#37474F"/>
<path opacity="0.1" d="M239.019 29.1423C239.019 27.8436 238.105 27.3195 236.971 27.9688L164.061 69.7526C163.465 70.1375 162.968 70.6571 162.612 71.2689C162.256 71.8807 162.051 72.5674 162.013 73.273V83.717L239.019 39.5863V29.1423Z" fill="black"/>
<path d="M170.072 72.162C169.942 72.1134 169.802 72.0972 169.665 72.1149C169.528 72.1327 169.397 72.1838 169.284 72.2637C168.879 72.5307 168.542 72.8872 168.298 73.3052C168.055 73.7232 167.913 74.1914 167.882 74.6733C167.862 74.8119 167.88 74.9533 167.934 75.0827C167.988 75.212 168.076 75.3246 168.189 75.4086C168.318 75.4614 168.459 75.4791 168.598 75.4599C168.736 75.4406 168.867 75.3851 168.977 75.2991C169.379 75.0321 169.714 74.6765 169.956 74.26C170.198 73.8434 170.34 73.3772 170.371 72.8974C170.392 72.7594 170.375 72.6185 170.322 72.4892C170.269 72.3599 170.183 72.247 170.072 72.162Z" fill="white"/>
<path d="M171.734 69.4944L171.56 69.5961V69.244C171.56 68.7512 171.214 68.5478 170.773 68.7981L167.464 70.6913C167.237 70.8376 167.047 71.0348 166.91 71.2672C166.773 71.4995 166.693 71.7605 166.677 72.0291V72.389L166.495 72.4907C166.193 72.6858 165.941 72.949 165.761 73.259C165.58 73.5689 165.475 73.9168 165.456 74.2743V77.4584C165.456 78.1155 165.92 78.3894 166.495 78.0608L171.718 75.0645C172.021 74.8681 172.273 74.6036 172.453 74.2923C172.634 73.981 172.738 73.6318 172.758 73.273V70.0733C172.773 69.4318 172.309 69.1658 171.734 69.4944ZM169.276 75.8155C169.021 75.9699 168.731 76.0562 168.433 76.0659C168.24 76.0677 168.05 76.0191 167.882 75.925C167.678 75.7885 167.514 75.6007 167.408 75.3807C167.301 75.1608 167.255 74.9166 167.275 74.6733C167.303 74.0871 167.471 73.516 167.767 73.0082C168.064 72.5003 168.478 72.0706 168.977 71.7553C169.177 71.612 169.412 71.526 169.658 71.5067C169.904 71.4874 170.151 71.5355 170.371 71.6458C170.575 71.7815 170.738 71.9694 170.844 72.1897C170.949 72.4101 170.993 72.6546 170.969 72.8975C170.942 73.4827 170.773 74.0528 170.479 74.5604C170.184 75.068 169.772 75.4983 169.276 75.8155ZM171.639 71.5675C171.371 71.7162 171.159 71.5675 171.159 71.2859C171.167 71.1197 171.214 70.9578 171.298 70.8136C171.381 70.6694 171.498 70.5471 171.639 70.4566C171.907 70.3002 172.127 70.4566 172.127 70.7304C172.121 70.8955 172.077 71.0569 171.998 71.2021C171.918 71.3473 171.806 71.4724 171.671 71.5675H171.639Z" fill="white"/>
<path d="M234.828 32.3576L229.732 35.2757C229.437 35.4668 229.191 35.7243 229.014 36.0274C228.838 36.3305 228.735 36.6706 228.716 37.0202V40.1495C228.716 40.7832 229.173 41.0492 229.732 40.7285L232.765 38.9917L233.954 40.173C233.982 40.1987 234.017 40.2159 234.054 40.2223C234.092 40.2288 234.131 40.2243 234.166 40.2094C234.201 40.1945 234.23 40.1698 234.252 40.1384C234.273 40.1069 234.284 40.07 234.285 40.0322V38.1155L234.828 37.8026C235.128 37.6141 235.379 37.3577 235.559 37.0544C235.74 36.7512 235.846 36.4097 235.868 36.058V32.9287C235.868 32.295 235.388 32.0369 234.828 32.3576Z" fill="white"/>
<path d="M171.852 81.8551C174.514 80.3531 176.672 81.5735 176.672 84.5933C176.577 86.2449 176.09 87.8508 175.253 89.2808C174.415 90.7108 173.25 91.9244 171.852 92.8233C169.181 94.3879 167.023 93.1284 167.023 90.0852C167.112 88.4312 167.597 86.8222 168.437 85.3911C169.276 83.96 170.447 82.748 171.852 81.8551Z" fill="#37474F"/>
<path d="M181.446 78.1702L197.444 69.0014C198.389 68.4616 199.153 68.8449 199.153 69.8541C199.111 70.424 198.935 70.9761 198.638 71.4655C198.341 71.9549 197.932 72.3678 197.444 72.6705L181.446 81.8393C180.508 82.3791 179.744 81.9957 179.744 80.9865C179.785 80.4174 179.961 79.866 180.257 79.3768C180.552 78.8875 180.959 78.4742 181.446 78.1702Z" fill="#37474F"/>
<g opacity="0.7">
<path opacity="0.7" d="M181.446 78.1702L197.444 69.0014C198.389 68.4616 199.153 68.8449 199.153 69.8541C199.111 70.424 198.935 70.9761 198.638 71.4655C198.341 71.9549 197.932 72.3678 197.444 72.6705L181.446 81.8393C180.508 82.3791 179.744 81.9957 179.744 80.9865C179.785 80.4174 179.961 79.866 180.257 79.3768C180.552 78.8875 180.959 78.4742 181.446 78.1702Z" fill="white"/>
</g>
<path d="M180.91 84.6713L191.883 78.4128C192.529 78.0451 193.048 78.3032 193.048 78.9995C193.02 79.3898 192.9 79.7681 192.698 80.1037C192.495 80.4394 192.216 80.7231 191.883 80.9318L180.91 87.1904C180.264 87.5581 179.744 87.2921 179.744 86.5958C179.773 86.2067 179.893 85.8298 180.096 85.4955C180.298 85.1612 180.577 84.8789 180.91 84.6713Z" fill="#37474F"/>
<g opacity="0.7">
<path opacity="0.7" d="M180.91 84.6713L191.883 78.4128C192.529 78.0451 193.048 78.3032 193.048 78.9995C193.02 79.3898 192.9 79.7681 192.698 80.1037C192.495 80.4394 192.216 80.7231 191.883 80.9318L180.91 87.1904C180.264 87.5581 179.744 87.2921 179.744 86.5958C179.773 86.2067 179.893 85.8298 180.096 85.4955C180.298 85.1612 180.577 84.8789 180.91 84.6713Z" fill="white"/>
</g>
<path d="M171.852 164.108C174.514 162.606 176.672 163.834 176.672 166.846C176.577 168.498 176.09 170.104 175.253 171.534C174.415 172.964 173.25 174.178 171.852 175.076C169.181 176.641 167.023 175.382 167.023 172.338C167.114 170.685 167.6 169.076 168.439 167.646C169.279 166.215 170.448 165.002 171.852 164.108Z" fill="#37474F"/>
<path d="M181.446 160.431L197.444 151.255C198.389 150.715 199.153 151.098 199.153 152.108C199.111 152.677 198.935 153.23 198.638 153.719C198.341 154.208 197.932 154.621 197.444 154.924L181.446 164.101C180.508 164.64 179.744 164.257 179.744 163.24C179.787 162.672 179.963 162.122 180.258 161.635C180.554 161.147 180.96 160.735 181.446 160.431Z" fill="#37474F"/>
<g opacity="0.7">
<path opacity="0.7" d="M181.446 160.431L197.444 151.255C198.389 150.715 199.153 151.098 199.153 152.108C199.111 152.677 198.935 153.23 198.638 153.719C198.341 154.208 197.932 154.621 197.444 154.924L181.446 164.101C180.508 164.64 179.744 164.257 179.744 163.24C179.787 162.672 179.963 162.122 180.258 161.635C180.554 161.147 180.96 160.735 181.446 160.431Z" fill="white"/>
</g>
<path d="M180.91 166.925L191.883 160.666C192.529 160.299 193.048 160.557 193.048 161.253C193.02 161.643 192.9 162.022 192.698 162.357C192.495 162.693 192.216 162.977 191.883 163.185L180.91 169.444C180.264 169.811 179.744 169.545 179.744 168.857C179.772 168.467 179.892 168.088 180.094 167.752C180.297 167.417 180.576 167.133 180.91 166.925Z" fill="#37474F"/>
<g opacity="0.7">
<path opacity="0.7" d="M180.91 166.925L191.883 160.666C192.529 160.299 193.048 160.557 193.048 161.253C193.02 161.643 192.9 162.022 192.698 162.357C192.495 162.693 192.216 162.977 191.883 163.185L180.91 169.444C180.264 169.811 179.744 169.545 179.744 168.857C179.772 168.467 179.892 168.088 180.094 167.752C180.297 167.417 180.576 167.133 180.91 166.925Z" fill="white"/>
</g>
<path d="M170.355 97.3762L230.937 62.6412C231.882 62.1014 232.646 62.5395 232.646 63.6191V123.709C232.614 124.298 232.442 124.872 232.145 125.383C231.848 125.894 231.434 126.328 230.937 126.651L170.355 161.589C169.41 162.129 168.653 161.691 168.653 160.611V100.31C168.684 99.7224 168.854 99.1503 169.15 98.6404C169.445 98.1306 169.858 97.6974 170.355 97.3762Z" fill="#F5F5F5"/>
<path d="M192.592 111.137C192.437 110.912 192.223 110.733 191.974 110.62C191.724 110.507 191.448 110.464 191.176 110.495C190.903 110.527 190.644 110.632 190.427 110.799C190.211 110.965 190.044 111.188 189.945 111.442L168.677 151.56V160.611C168.677 161.691 169.465 162.129 170.379 161.589L230.961 126.831C231.458 126.508 231.872 126.074 232.169 125.563C232.466 125.052 232.638 124.478 232.67 123.889V103.862L221.162 83.5605C220.524 82.4261 219.634 82.4966 219.169 83.7092L203.848 124.038L192.592 111.137Z" fill="#37474F"/>
<g opacity="0.3">
<path opacity="0.3" d="M192.592 111.137C192.437 110.912 192.223 110.733 191.974 110.62C191.724 110.507 191.448 110.464 191.176 110.495C190.903 110.527 190.644 110.632 190.427 110.799C190.211 110.965 190.044 111.188 189.945 111.442L168.677 151.56V160.611C168.677 161.691 169.465 162.129 170.379 161.589L230.961 126.831C231.458 126.508 231.872 126.074 232.169 125.563C232.466 125.052 232.638 124.478 232.67 123.889V103.862L221.162 83.5605C220.524 82.4261 219.634 82.4966 219.169 83.7092L203.848 124.038L192.592 111.137Z" fill="#00564C"/>
</g>
<path d="M175.042 113.633C180.382 110.59 184.722 103.173 184.722 97.0712C184.722 93.9419 183.588 91.7984 181.784 90.8127L170.355 97.3607C169.858 97.6818 169.445 98.115 169.15 98.6249C168.854 99.1347 168.684 99.7068 168.653 100.294V114.486C170.355 115.245 172.584 115.01 175.042 113.633Z" fill="#37474F"/>
<g opacity="0.6">
<path opacity="0.6" d="M175.042 113.633C180.382 110.59 184.722 103.173 184.722 97.0712C184.722 93.9419 183.588 91.7984 181.784 90.8127L170.355 97.3607C169.858 97.6818 169.445 98.115 169.15 98.6249C168.854 99.1347 168.684 99.7068 168.653 100.294V114.486C170.355 115.245 172.584 115.01 175.042 113.633Z" fill="white"/>
</g>
<path d="M170.355 179.943L230.937 145.2C231.882 144.66 232.646 145.043 232.646 146.06C232.603 146.629 232.426 147.179 232.129 147.667C231.832 148.155 231.424 148.567 230.937 148.869L170.355 183.612C169.41 184.151 168.653 183.768 168.653 182.751C168.693 182.183 168.868 181.632 169.164 181.144C169.46 180.656 169.868 180.244 170.355 179.943Z" fill="#37474F"/>
<g opacity="0.6">
<path opacity="0.6" d="M170.355 179.943L230.937 145.2C231.882 144.66 232.646 145.043 232.646 146.06C232.603 146.629 232.426 147.179 232.129 147.667C231.832 148.155 231.424 148.567 230.937 148.869L170.355 183.612C169.41 184.151 168.653 183.768 168.653 182.751C168.693 182.183 168.868 181.632 169.164 181.144C169.46 180.656 169.868 180.244 170.355 179.943Z" fill="white"/>
</g>
<path d="M170.355 187.281L230.937 152.561C231.882 152.021 232.646 152.405 232.646 153.422C232.603 153.99 232.426 154.541 232.129 155.029C231.832 155.517 231.424 155.928 230.937 156.23L170.355 190.973C169.41 191.513 168.653 191.13 168.653 190.113C168.69 189.54 168.864 188.985 169.16 188.493C169.456 188 169.865 187.585 170.355 187.281Z" fill="#37474F"/>
<g opacity="0.6">
<path opacity="0.6" d="M170.355 187.281L230.937 152.561C231.882 152.021 232.646 152.405 232.646 153.422C232.603 153.99 232.426 154.541 232.129 155.029C231.832 155.517 231.424 155.928 230.937 156.23L170.355 190.973C169.41 191.513 168.653 191.13 168.653 190.113C168.69 189.54 168.864 188.985 169.16 188.493C169.456 188 169.865 187.585 170.355 187.281Z" fill="white"/>
</g>
<path d="M179.697 64.6675L222.918 39.907C224.241 39.1247 225.281 39.7662 225.281 41.2761C225.24 42.0959 225.005 42.8946 224.594 43.607C224.184 44.3194 223.609 44.9253 222.918 45.3754L179.705 70.0655C178.382 70.8478 177.342 70.222 177.342 68.7355C177.387 67.9218 177.623 67.1298 178.032 66.4233C178.441 65.7167 179.011 65.1154 179.697 64.6675Z" fill="#FAFAFA"/>
<path d="M306.682 111.63L309.746 117.208L304.981 121.268L300.609 114.392L306.682 111.63Z" fill="#F28F8F"/>
<path d="M295.182 99.1991C298.222 99.1991 301.57 100.326 302.72 102.696L307.446 112.428C307.446 112.428 304.76 116.34 300.499 116.058L295.182 99.1991Z" fill="#E0E0E0"/>
<path d="M306.445 118.077C307.336 116.434 307.556 116.355 308.084 115.996C308.612 115.636 311.857 115.158 313.204 115.041C314.779 114.908 315.354 115.198 314.913 116.551C313.7 119.964 312.214 123.276 310.471 126.455C310.045 127.011 309.966 127.527 308.178 127.707C306.516 127.863 304.429 127.957 303.815 127.989C303.2 128.02 302.349 128.184 302.893 126.385C303.596 124.352 304.411 122.359 305.335 120.416C306.02 118.921 306.445 118.077 306.445 118.077Z" fill="#37474F"/>
<path d="M270.952 173.426C270.164 173.034 269.715 173.989 269.03 174.756C268.441 175.319 267.982 176.002 267.683 176.758C267.517 177.658 268.345 179.105 269.258 179.888C270.172 180.67 271.227 181.241 271.558 182.962C271.644 183.752 271.952 184.502 272.448 185.125C272.945 185.748 273.608 186.218 274.363 186.483C276.332 187.327 278.971 187.054 279.876 186.483C280.932 185.802 279.963 185.051 278.482 182.939C276.544 180.185 275.032 178.245 275.032 175.64L270.952 173.426Z" fill="#263238"/>
<path d="M272.503 171.165L270.928 173.512C270.588 173.991 270.454 174.585 270.554 175.163C270.654 175.741 270.982 176.255 271.464 176.594L271.511 176.633C271.995 176.919 272.565 177.027 273.122 176.94C273.678 176.853 274.187 176.576 274.559 176.156L277.048 173.465L272.503 171.165Z" fill="#FFA8A7"/>
<path d="M301.759 125.915C301.861 128.872 301.018 140.819 298.962 146.099C296.907 151.38 295.717 154.666 295.071 155.769C294.425 156.872 275.788 174.881 275.788 174.881C275.788 174.881 272.637 174.654 272.125 171.611C272.125 171.611 279.758 158.718 281.412 156.074C283.067 153.43 288.927 149.377 288.927 149.377L288.391 126.252L301.759 125.915Z" fill="#37474F"/>
<path d="M274.15 123.036C274.15 122.528 275.725 116.684 276.513 113.985L282.287 115.956L280.932 120.212L275.851 125.43C275.313 125.324 274.836 125.016 274.52 124.571C274.203 124.125 274.071 123.576 274.15 123.036Z" fill="#FFA8A7"/>
<path d="M297.653 188.851L301.593 187.961L300.289 182.262L296.348 183.152L297.653 188.851Z" fill="#FFA8A7"/>
<path d="M301.758 125.915H282.854C282.441 128.657 282.204 131.421 282.145 134.192C281.995 142.328 289.62 157.107 289.62 157.107C289.254 160.395 289.419 163.72 290.108 166.956C291.778 173.434 296.331 184.41 296.331 184.41C296.331 184.41 299.191 184.809 300.601 183.173C300.601 183.173 298.08 160.901 297.403 155.198C296.67 149.017 294.779 137.744 294.779 137.744C296.027 136.509 297.158 135.163 298.159 133.723C299.912 131.404 301.138 128.735 301.751 125.9" fill="#37474F"/>
<path d="M288.943 99.3633C285.319 100.232 280.381 101.358 278.955 105.254C277.529 109.15 275.473 116.058 275.473 116.058C276.261 117.427 280.633 118.561 282.153 117.771L282.862 115.424V125.892C285.697 128.958 295.575 130.382 301.767 125.892V106.334C301.767 103.204 300.018 99.4493 295.189 99.1755L288.943 99.3633Z" fill="#11B5E4"/>
<path d="M282.862 115.448L284.681 109.76L282.862 117.99V115.448Z" fill="#E0E0E0"/>
<path d="M287.58 83.3805C287.255 83.3445 286.926 83.3822 286.618 83.4906C286.309 83.599 286.03 83.7753 285.8 84.0063C285.012 84.7886 285.193 86.2203 285.8 89.5295L288.163 89.7955L287.58 83.3805Z" fill="#263238"/>
<path d="M301.373 82.4261C301.869 82.4313 302.362 82.3382 302.822 82.1523C303.547 81.7377 303.736 82.5591 303.334 83.271C303.072 83.7812 302.682 84.2159 302.202 84.5337C301.722 84.8515 301.168 85.0416 300.593 85.086C300.593 84.9843 299.916 83.2475 299.916 83.2475L301.373 82.4261Z" fill="#263238"/>
<path d="M288.691 89.7956C288.344 90.0069 287.84 89.3341 287.407 88.8881C287.237 88.6938 287.021 88.5456 286.777 88.4577C286.534 88.3698 286.272 88.345 286.017 88.3858C285.761 88.4265 285.52 88.5314 285.317 88.6905C285.113 88.8496 284.954 89.0577 284.855 89.2949C284.138 90.797 285.768 92.7997 286.729 93.4569C286.996 93.6883 287.329 93.8297 287.682 93.8606C288.034 93.8915 288.388 93.8104 288.691 93.629L288.943 99.3791C289.367 100.3 290.015 101.103 290.827 101.715C291.639 102.328 292.591 102.732 293.598 102.892C297.001 103.345 296.3 100.545 295.173 99.1991V97.1103C296.025 97.2889 296.9 97.3312 297.765 97.2355C298.206 97.1182 299.262 95.8508 299.947 94.427C301.4 91.5761 301.723 88.2874 300.853 85.2112C299.632 80.0635 294.063 79.9071 290.747 81.9802C287.43 84.0534 288.691 89.7956 288.691 89.7956Z" fill="#FFA8A7"/>
<path d="M288.691 90.3824C288.517 90.3824 287.848 89.2793 287.407 88.8881C286.8 88.3405 287.58 83.4119 287.58 83.4119C287.413 82.8821 287.379 82.3197 287.482 81.774C287.585 81.2283 287.822 80.7162 288.171 80.2826C289.368 79.0309 291.684 79.2421 293.378 79.1873C295.461 79.1955 297.525 78.7829 299.443 77.9747C301.853 76.9343 302.034 76.8169 302.326 77.8652C302.559 78.7316 302.587 79.6395 302.41 80.5187C302.232 81.3979 301.853 82.2246 301.302 82.9347L300.514 84.202C300.514 84.202 299.782 84.8122 297.537 85.086C295.292 85.3599 291.463 84.1551 290.983 84.0925C290.329 84.0064 290.195 84.6323 289.841 86.3456C289.541 87.8242 289.289 90.3745 288.691 90.3824Z" fill="#263238"/>
<path d="M287.588 83.7724L285.461 82.6376C285.529 82.4996 285.624 82.3763 285.74 82.2748C285.856 82.1733 285.991 82.0956 286.138 82.0462C286.284 81.9967 286.439 81.9765 286.593 81.9867C286.748 81.9969 286.898 82.0372 287.037 82.1054C287.329 82.2576 287.55 82.5167 287.653 82.8279C287.756 83.139 287.732 83.4778 287.588 83.7724Z" fill="#263238"/>
<path d="M295.174 97.1103C293.724 96.8343 292.303 96.4285 290.928 95.8977C290.284 95.5598 289.755 95.0398 289.408 94.4035C289.574 95.0423 289.869 95.641 290.274 96.1637C291.062 97.1886 295.174 97.9396 295.174 97.9396V97.1103Z" fill="#F28F8F"/>
<path d="M295.276 89.6863C295.278 89.8552 295.213 90.0181 295.095 90.1397C294.977 90.2613 294.816 90.3318 294.646 90.3359C294.561 90.3339 294.478 90.3152 294.4 90.2811C294.322 90.247 294.252 90.198 294.194 90.1369C294.135 90.0759 294.089 90.004 294.059 89.9253C294.028 89.8467 294.014 89.7628 294.016 89.6785C294.014 89.5096 294.079 89.3467 294.197 89.2251C294.315 89.1035 294.476 89.0331 294.646 89.0289C294.731 89.031 294.814 89.0496 294.892 89.0837C294.97 89.1179 295.04 89.1669 295.098 89.2279C295.157 89.289 295.202 89.3609 295.233 89.4395C295.264 89.5182 295.278 89.6021 295.276 89.6863Z" fill="#263238"/>
<path d="M294.607 87.3158L293.26 88.0984C293.208 88.0076 293.176 87.9077 293.164 87.8044C293.152 87.701 293.161 87.5964 293.191 87.4966C293.22 87.3968 293.269 87.3038 293.335 87.223C293.401 87.1422 293.482 87.0753 293.575 87.0262C293.752 86.9361 293.956 86.9159 294.148 86.9696C294.339 87.0233 294.503 87.147 294.607 87.3158Z" fill="#263238"/>
<path d="M294.89 93.8872L296.332 94.4271C296.26 94.6149 296.119 94.7683 295.938 94.8557C295.756 94.943 295.547 94.9577 295.355 94.8967C295.258 94.861 295.168 94.8065 295.092 94.7364C295.016 94.6662 294.954 94.5818 294.911 94.488C294.868 94.3941 294.844 94.2928 294.84 94.1896C294.837 94.0865 294.854 93.9837 294.89 93.8872Z" fill="#F28F8F"/>
<path d="M300.9 87.8402L299.671 86.9011C299.795 86.7427 299.975 86.6373 300.174 86.6067C300.373 86.5762 300.577 86.6227 300.743 86.7368C300.827 86.7985 300.897 86.8761 300.951 86.9652C301.004 87.0543 301.039 87.1531 301.054 87.2558C301.068 87.3584 301.062 87.463 301.036 87.5633C301.01 87.6636 300.963 87.7578 300.9 87.8402Z" fill="#263238"/>
<path d="M300.522 89.5064C300.524 89.6753 300.459 89.8382 300.341 89.9598C300.223 90.0814 300.062 90.1519 299.892 90.156C299.807 90.1539 299.724 90.1353 299.646 90.1012C299.568 90.067 299.498 90.0181 299.44 89.957C299.381 89.896 299.336 89.824 299.305 89.7454C299.274 89.6667 299.26 89.5829 299.262 89.4986C299.26 89.3297 299.325 89.1668 299.443 89.0452C299.561 88.9236 299.722 88.8532 299.892 88.849C300.063 88.8552 300.224 88.9274 300.342 89.0502C300.46 89.1731 300.524 89.3368 300.522 89.5064Z" fill="#263238"/>
<path d="M297.552 89.4279L296.961 93.1518L299.033 92.9093L297.552 89.4279Z" fill="#F28F8F"/>
<path d="M301.144 186.06L301.018 185.497C301.428 185.575 303.2 188.493 304.957 189.76C306.879 191.145 308.541 191.967 309.399 192.592C310.549 193.43 308.887 195.143 306.059 195.299C304.657 195.37 302.121 194.947 301.333 194.204C300.546 193.461 299.978 192.233 299.348 191.701C298.718 191.169 297.466 190.699 297.032 190.019C296.801 189.343 296.717 188.625 296.788 187.914C296.788 187.179 296.843 186.35 297.095 186.389L297.19 186.811C297.92 187.181 298.733 187.362 299.553 187.335C300.238 187.304 301.475 187.155 301.144 186.06Z" fill="#263238"/>
<path d="M296.914 151.411C296.914 151.411 295.237 139.575 294.788 137.744C296.135 137.013 297.389 136.122 298.521 135.092C297.74 136.202 296.888 137.26 295.969 138.26L296.914 151.411Z" fill="#263238"/>
<path d="M286.792 150.996C286.792 150.996 288.809 155.98 289.628 157.083C289.628 157.083 289.423 160.885 289.447 161.652L288.392 162.567C288.364 160.847 288.522 159.129 288.864 157.443C287.938 155.376 287.243 153.214 286.792 150.996Z" fill="#263238"/>
<path d="M280.956 120.212C280.956 120.212 296.844 121.902 298.71 121.331C300.577 120.76 303.082 118.922 304.398 118.139C305.713 117.357 306.714 117.31 306.714 117.631C306.714 117.951 305.563 119.696 305.304 120.424C305.044 121.151 306.54 121.151 308.517 120.697C310.494 120.244 311.282 119.133 311.794 119.774C312.306 120.416 310.699 123.686 307.422 124.914C304.146 126.142 301.712 125.321 299.002 125.438C296.292 125.556 279.601 126.612 275.844 125.438C275.744 124.84 275.813 124.226 276.042 123.665C276.272 123.103 276.653 122.615 277.143 122.254C278.279 121.349 279.571 120.657 280.956 120.212Z" fill="#FFA8A7"/>
<path d="M192.875 195.589C192.915 195.08 193.884 189.604 194.545 186.537L201.028 188.509L199.988 192.804L194.6 197.983C194.058 197.881 193.575 197.576 193.254 197.13C192.932 196.684 192.797 196.132 192.875 195.589Z" fill="#FFA8A7"/>
<path d="M207.085 149.229H210.236C212.561 149.229 214.791 150.146 216.436 151.779C218.08 153.412 219.003 155.626 219.003 157.936V180.122H198.318V157.936C198.318 155.626 199.242 153.412 200.886 151.779C202.53 150.146 204.76 149.229 207.085 149.229Z" fill="#263238"/>
<path d="M224.233 184.081L227.297 189.659L222.524 193.711L218.16 186.835L224.233 184.081Z" fill="#F28F8F"/>
<path d="M212.733 171.642C215.773 171.642 219.121 172.768 220.271 175.139L224.997 184.871C224.997 184.871 222.311 188.782 218.05 188.509L212.733 171.642Z" fill="#455A64"/>
<path d="M215.191 268.157C216.237 269.547 217.413 270.836 218.704 272.006C218.911 272.171 219.076 272.383 219.184 272.624C219.318 273.031 219.492 274.009 217.672 274.408C216.75 274.608 215.794 274.61 214.872 274.411C213.949 274.213 213.08 273.819 212.323 273.258C210.992 272.194 211.15 270.324 209.921 269.096C209.007 268.196 207.771 267.844 207.085 266.749C206.605 265.966 206.865 265.035 207.298 263.885C207.731 262.735 208.038 261.687 208.456 261.836L208.314 262.415C208.747 263.33 211.465 263.909 212.796 263.471C213.512 265.073 214.312 266.637 215.191 268.157Z" fill="#263238"/>
<path d="M216.262 269.503C215.892 269.072 215.53 268.634 215.191 268.157C214.494 267.005 213.871 265.811 213.324 264.582C212.969 263.849 212.907 263.011 213.151 262.235L214.049 259.223L209.322 258.143L208.298 262.36C208.078 263.322 208.779 264.277 210.063 265.669C211.347 267.062 212.828 270.128 214.001 270.997C215.175 271.865 216.136 271.951 216.735 271.654C217.333 271.357 217.483 271.083 216.262 269.503Z" fill="#FFA8A7"/>
<path d="M202.478 270.809V270.144C202.745 270.926 203.958 274.259 205.802 275.933C207.275 277.255 209.275 278.796 209.78 280.275C210.284 281.754 206.999 282.333 205.628 282.09C203.799 281.786 202.122 280.892 200.855 279.547C200.067 278.585 199.563 277.443 198.996 276.684C198.429 275.925 197.137 275.12 196.838 274.212C196.743 273.395 196.832 272.566 197.098 271.787C197.318 271.005 197.547 270.074 197.83 270.144V270.692C198.504 271.213 199.339 271.489 200.193 271.474C200.839 271.474 202.485 271.325 202.478 270.809Z" fill="#263238"/>
<path d="M207.133 277.099L205.802 275.925C204.567 274.626 203.603 273.097 202.966 271.427C202.643 270.656 202.477 269.829 202.478 268.994V266.358H197.83V270.645V270.762C198.051 271.724 200.193 274.275 201.398 275.941C202.387 277.373 203.894 278.371 205.605 278.726C207.377 278.961 208.299 278.413 207.133 277.099Z" fill="#FFA8A7"/>
<path d="M198.751 199.023C195.152 206.846 198.885 234.392 198.885 234.392C198.775 235.667 197.31 238.163 196.774 243.78C196.128 250.383 197.782 266.952 197.782 266.952C198.494 267.367 199.297 267.601 200.122 267.634C200.946 267.667 201.766 267.497 202.509 267.14C202.509 267.14 206.943 242.176 207.778 235.612L210.441 214.552L214.379 235.104C213.325 236.714 212.454 238.435 211.78 240.236C210.842 243.138 208.944 259.677 208.944 259.677C209.585 260.258 210.351 260.687 211.183 260.929C212.016 261.172 212.894 261.223 213.749 261.077C213.749 261.077 222.847 238.39 223.257 233.758C223.501 230.981 219.421 197.912 219.421 197.912L198.751 199.023Z" fill="#37474F"/>
<path d="M210.41 214.521L211.04 209.999C211.04 209.999 215.994 208.982 218.239 206.87C216.689 208.675 214.662 210.013 212.387 210.734L211.725 215.1L212.513 225.215L210.41 214.521Z" fill="#263238"/>
<path d="M205.147 171.853C203.821 172.173 202.584 172.785 201.527 173.644C200.471 174.502 199.622 175.585 199.043 176.813C198.192 178.68 198.113 180.803 198.822 182.727L201.997 191.982C201.997 191.982 200.492 195.604 198.736 199.023C206.825 203.506 216.916 201.151 219.35 197.881C219.452 197.185 219.31 194.055 219.507 190.504C219.712 186.709 220.24 182.422 219.641 180.083C218.523 175.726 216.435 171.642 212.284 171.642L205.147 171.853Z" fill="#F03E3D"/>
<path d="M203.911 171.853C201.154 172.237 197.105 172.792 195.703 179.301C194.301 185.81 193.884 188.196 193.884 188.196C194.783 189.072 195.854 189.755 197.03 190.202C198.206 190.648 199.463 190.85 200.721 190.793L202.147 185.786L203.911 171.853Z" fill="#455A64"/>
<path d="M205.478 177.345C205.003 177.345 204.531 177.252 204.092 177.071C203.652 176.89 203.253 176.625 202.916 176.291C202.58 175.957 202.313 175.56 202.131 175.124C201.949 174.687 201.855 174.219 201.855 173.746V163.271H205.478V177.345Z" fill="#263238"/>
<path d="M215.608 153.382C216.703 154.024 218.05 156.754 217.916 162.473C217.806 167.323 216.223 168.528 215.427 168.872C214.632 169.217 213.103 169.005 211.615 168.755V171.665C211.615 171.665 213.671 174.012 213.545 175.381C213.419 176.75 210.567 177.032 208.637 175.726C207.394 174.83 206.326 173.717 205.486 172.44V165.399C205.33 165.59 205.136 165.748 204.917 165.864C204.698 165.98 204.459 166.051 204.212 166.075C203.965 166.098 203.716 166.072 203.479 165.999C203.242 165.926 203.022 165.807 202.832 165.649C201.186 164.562 201.123 161.878 202.084 160.955C203.045 160.032 205.1 160.298 205.486 161.628C207.433 161.543 209.328 160.979 211 159.985C212.24 159.326 213.304 158.383 214.106 157.235C214.907 156.087 215.422 154.767 215.608 153.382Z" fill="#FFA8A7"/>
<path d="M212.465 161.261C212.466 161.38 212.432 161.498 212.367 161.598C212.302 161.699 212.208 161.778 212.098 161.827C211.988 161.875 211.866 161.89 211.747 161.869C211.628 161.849 211.518 161.795 211.43 161.713C211.342 161.631 211.281 161.525 211.253 161.409C211.225 161.292 211.232 161.17 211.274 161.058C211.315 160.945 211.389 160.848 211.486 160.776C211.583 160.705 211.699 160.664 211.819 160.658C211.902 160.655 211.984 160.668 212.061 160.697C212.138 160.726 212.209 160.769 212.269 160.825C212.329 160.881 212.377 160.949 212.411 161.023C212.445 161.098 212.463 161.179 212.465 161.261Z" fill="#263238"/>
<path d="M212.631 165.368L214.057 165.822C214.031 165.917 213.987 166.006 213.926 166.084C213.865 166.162 213.789 166.226 213.702 166.274C213.615 166.321 213.519 166.351 213.42 166.361C213.321 166.37 213.222 166.36 213.127 166.33C212.936 166.264 212.777 166.127 212.685 165.948C212.592 165.769 212.573 165.561 212.631 165.368Z" fill="#F28F8F"/>
<path d="M217.499 159.383L216.262 158.53C216.314 158.447 216.383 158.375 216.463 158.319C216.544 158.263 216.636 158.224 216.732 158.204C216.829 158.184 216.929 158.184 217.025 158.204C217.122 158.224 217.213 158.263 217.294 158.319C217.46 158.436 217.574 158.612 217.612 158.81C217.65 159.009 217.61 159.214 217.499 159.383Z" fill="#263238"/>
<path d="M217.215 160.815C217.226 160.98 217.171 161.142 217.061 161.267C216.952 161.391 216.798 161.468 216.632 161.48C216.467 161.482 216.307 161.421 216.187 161.308C216.066 161.196 215.994 161.041 215.986 160.877C215.982 160.797 215.994 160.717 216.021 160.641C216.048 160.566 216.09 160.496 216.144 160.437C216.198 160.377 216.263 160.329 216.336 160.294C216.409 160.26 216.488 160.24 216.569 160.236C216.65 160.232 216.73 160.243 216.807 160.27C216.883 160.297 216.953 160.339 217.013 160.392C217.073 160.446 217.121 160.511 217.156 160.584C217.191 160.656 217.211 160.735 217.215 160.815Z" fill="#263238"/>
<path d="M214.316 160.47L214.419 164.14L216.364 163.537L214.316 160.47Z" fill="#F28F8F"/>
<path d="M211.615 168.755C210.039 168.552 206.81 167.629 206.306 166.361C206.506 167.004 206.903 167.57 207.44 167.981C208.401 168.802 211.615 169.733 211.615 169.733V168.755Z" fill="#F28F8F"/>
<path d="M223.989 190.519C224.88 188.876 225.1 188.806 225.636 188.446C226.171 188.086 229.409 187.601 230.756 187.484C232.331 187.351 232.906 187.64 232.465 189.002C231.237 192.412 229.741 195.721 227.991 198.898C227.566 199.461 227.479 199.978 225.699 200.15C223.919 200.322 221.941 200.4 221.327 200.439C220.713 200.478 219.862 200.627 220.413 198.828C221.116 196.796 221.928 194.803 222.847 192.858C223.564 191.38 223.989 190.519 223.989 190.519Z" fill="#37474F"/>
<path d="M199.988 192.835C199.988 192.835 214.395 194.345 216.262 193.774C218.129 193.203 220.634 191.349 221.981 190.582C223.328 189.815 224.297 189.753 224.297 190.066C224.297 190.379 223.147 192.139 222.879 192.858C222.611 193.578 224.123 193.586 226.093 193.132C228.062 192.679 228.857 191.568 229.377 192.209C229.897 192.851 228.282 196.121 225.006 197.349C221.729 198.577 219.295 197.764 216.585 197.873C213.875 197.983 198.358 199.187 194.6 198.014C194.501 197.416 194.57 196.802 194.799 196.24C195.028 195.678 195.409 195.19 195.9 194.83C197.115 193.901 198.505 193.222 199.988 192.835Z" fill="#FFA8A7"/>
<path d="M201.028 189.158C201.646 187.496 202.172 185.801 202.603 184.081C202.603 184.081 202.343 187.859 201.272 189.886L201.028 189.158Z" fill="#37474F"/>
<path d="M84.456 142.634L81.896 148.126L86.6616 152.178L90.7812 145.27L84.456 142.634Z" fill="#F28F8F"/>
<path d="M96.2088 130.07C93.1683 130.07 89.8206 131.204 88.6705 133.567C87.5205 135.929 83.9443 143.307 83.9443 143.307C83.9443 143.307 86.6304 147.218 90.8918 146.937L96.2088 130.07Z" fill="#37474F"/>
<path d="M109.395 217.212H105.188V223.291H109.395V217.212Z" fill="#FFA8A7"/>
<path d="M94.6062 209.691L90.4023 209.835L90.6127 215.91L94.8166 215.766L94.6062 209.691Z" fill="#FFA8A7"/>
<path d="M109.111 157.865C109.111 161.855 109.631 187.641 109.631 187.641C109.734 188.783 110.813 190.903 110.576 195.307C110.261 201.292 109.742 217.916 109.742 217.916C109.742 217.916 107.772 219.857 105.015 217.916C105.015 217.916 101.203 195.323 100.455 189.393C99.7929 184.222 98.6822 170.164 98.6822 170.164L94.7831 186.71C94.7831 186.71 95.4684 190.621 95.626 193.344C95.7835 196.066 94.9092 211.955 94.9092 211.955C94.2276 212.378 93.4467 212.616 92.6439 212.646C91.8412 212.676 91.0444 212.497 90.3326 212.127C90.3326 212.127 86.9613 188.955 86.528 186.475C86.0948 183.995 89.4819 157.865 89.4819 157.865H109.111Z" fill="#37474F"/>
<path d="M102.786 130.257H102.849C104.653 130.708 106.254 131.745 107.396 133.204C108.538 134.663 109.156 136.46 109.15 138.307V157.866C106.205 161.05 95.9329 162.559 89.458 157.866V137.525C89.458 134.279 91.2776 130.367 96.2952 130.077L102.786 130.257Z" fill="#02897A"/>
<path d="M104.204 113.617C104.542 113.58 104.884 113.619 105.204 113.731C105.525 113.844 105.816 114.027 106.055 114.267C106.842 115.049 106.685 116.575 106.055 120.009L103.597 120.291L104.204 113.617Z" fill="#263238"/>
<path d="M89.8597 112.663C89.3323 112.664 88.81 112.561 88.3237 112.358C87.536 111.928 87.3706 112.78 87.7802 113.516C88.0547 114.047 88.4617 114.499 88.9623 114.829C89.4629 115.159 90.0404 115.356 90.6396 115.401C90.6396 115.299 91.3406 113.5 91.3406 113.5L89.8597 112.663Z" fill="#263238"/>
<path d="M103.046 120.291C103.416 120.51 103.936 119.813 104.385 119.344C104.561 119.141 104.787 118.985 105.04 118.894C105.294 118.802 105.567 118.776 105.834 118.819C106.1 118.862 106.351 118.973 106.562 119.14C106.774 119.307 106.938 119.526 107.04 119.774C107.827 121.339 106.086 123.42 105.094 124.101C104.815 124.341 104.467 124.489 104.099 124.521C103.731 124.553 103.363 124.469 103.046 124.28L102.786 130.257C102.345 131.216 101.672 132.052 100.826 132.689C99.9811 133.327 98.99 133.746 97.9416 133.911C94.4048 134.388 95.1374 131.493 96.2953 130.07V127.895C95.4134 128.085 94.5064 128.132 93.6092 128.036C93.1445 127.91 92.0338 126.588 91.3328 125.11C90.5451 123.451 89.2139 120.51 90.3954 115.526C91.6636 110.167 97.4847 110.003 100.903 112.162C104.322 114.322 103.046 120.291 103.046 120.291Z" fill="#FFA8A7"/>
<path d="M103.046 120.901C103.235 120.901 103.928 119.759 104.385 119.336C105.015 118.765 104.204 113.61 104.204 113.61C104.204 113.61 104.842 111.662 103.597 110.363C102.353 109.064 99.9344 109.283 98.1699 109.221C96.0047 109.234 93.8598 108.805 91.8683 107.961C89.3634 106.882 89.1744 106.757 88.8672 107.844C88.6241 108.745 88.5936 109.689 88.7781 110.604C88.9625 111.518 89.3569 112.378 89.9306 113.117L91.1751 113.571C91.1751 113.571 91.8447 114.165 94.1842 114.447C96.3415 114.605 98.509 114.566 100.659 114.329C101.336 114.235 101.447 114.885 101.848 116.676C102.164 118.241 102.431 120.893 103.046 120.901Z" fill="#263238"/>
<path d="M104.196 114.025L106.409 112.843C106.339 112.695 106.239 112.563 106.116 112.455C105.993 112.347 105.849 112.264 105.692 112.213C105.536 112.162 105.371 112.143 105.207 112.157C105.043 112.171 104.884 112.218 104.739 112.295C104.443 112.459 104.221 112.73 104.12 113.052C104.019 113.374 104.046 113.722 104.196 114.025Z" fill="#263238"/>
<path d="M96.3033 127.895C97.8127 127.613 99.2922 127.192 100.722 126.635C101.395 126.285 101.945 125.739 102.298 125.071C102.126 125.735 101.82 126.357 101.4 126.901C100.565 127.965 96.2954 128.748 96.2954 128.748L96.3033 127.895Z" fill="#F28F8F"/>
<path d="M97.0909 119.477C97.094 119.607 97.1356 119.733 97.2105 119.839C97.2855 119.945 97.3903 120.027 97.5119 120.074C97.6335 120.121 97.7664 120.131 97.8939 120.104C98.0214 120.076 98.1378 120.011 98.2284 119.918C98.3191 119.825 98.3799 119.707 98.4033 119.579C98.4267 119.452 98.4116 119.32 98.3598 119.201C98.3081 119.082 98.2221 118.981 98.1127 118.91C98.0032 118.84 97.8752 118.803 97.7446 118.804C97.5684 118.808 97.401 118.881 97.2786 119.007C97.1562 119.133 97.0887 119.302 97.0909 119.477Z" fill="#263238"/>
<path d="M97.7842 117.021L99.1942 117.803C99.2919 117.611 99.3121 117.389 99.2506 117.182C99.1891 116.976 99.0506 116.8 98.8633 116.692C98.7711 116.642 98.6696 116.61 98.5649 116.6C98.4603 116.589 98.3545 116.599 98.2539 116.63C98.1534 116.661 98.06 116.711 97.9793 116.778C97.8986 116.845 97.8323 116.928 97.7842 117.021Z" fill="#263238"/>
<path d="M97.1382 123.897L95.6416 124.46C95.6744 124.56 95.7269 124.652 95.7962 124.731C95.8654 124.81 95.9499 124.875 96.0447 124.921C96.1394 124.967 96.2425 124.993 96.3478 124.999C96.4532 125.005 96.5585 124.989 96.6577 124.954C96.8608 124.875 97.0248 124.72 97.1146 124.523C97.2044 124.325 97.2129 124.101 97.1382 123.897Z" fill="#F28F8F"/>
<path d="M91.2381 117.561L92.5063 116.575C92.4453 116.489 92.3676 116.416 92.2779 116.361C92.1881 116.306 92.0881 116.269 91.9837 116.253C91.8794 116.237 91.7728 116.242 91.6704 116.268C91.5681 116.293 91.4719 116.339 91.3877 116.403C91.2176 116.539 91.1071 116.736 91.0792 116.952C91.0513 117.168 91.1082 117.386 91.2381 117.561Z" fill="#263238"/>
<path d="M91.6319 119.297C91.6297 119.472 91.6972 119.641 91.8196 119.767C91.942 119.893 92.1095 119.966 92.2857 119.97C92.464 119.966 92.6334 119.892 92.7573 119.765C92.8812 119.637 92.9494 119.467 92.9473 119.289C92.9575 119.198 92.948 119.105 92.9196 119.017C92.8911 118.929 92.8444 118.848 92.7823 118.779C92.7202 118.71 92.6443 118.655 92.5594 118.618C92.4745 118.58 92.3826 118.56 92.2896 118.56C92.1966 118.56 92.1047 118.58 92.0198 118.618C91.9349 118.655 91.859 118.71 91.7969 118.779C91.7348 118.848 91.6881 118.929 91.6596 119.017C91.6312 119.105 91.6217 119.198 91.6319 119.289V119.297Z" fill="#263238"/>
<path d="M94.9801 118.679L94.7595 122.598L92.7036 121.902L94.9801 118.679Z" fill="#F28F8F"/>
<path d="M105.188 221.226V220.623C104.787 220.795 103.849 224.339 102.187 225.849C100.856 227.046 99.0363 228.439 98.5873 229.761C98.1383 231.083 101.108 231.92 102.345 231.701C103.786 231.45 106.283 230.441 106.905 229.51C107.528 228.579 107.827 227.202 108.331 226.514C108.835 225.826 110.017 225.067 110.293 224.277C110.374 223.537 110.29 222.79 110.048 222.086C109.851 221.351 109.647 220.521 109.395 220.608C109.395 220.694 109.395 221.061 109.395 221.061C108.796 221.53 108.053 221.779 107.291 221.765C106.685 221.812 105.18 221.695 105.188 221.226Z" fill="#263238"/>
<path d="M90.5765 214.615C90.3559 214.615 90.1747 214.928 89.6943 215.444C88.977 216.169 88.1406 216.767 87.2209 217.212C85.6455 217.995 82.5892 219.199 81.2029 219.817C80.3443 220.209 80.4152 221.241 81.2738 221.836C82.1323 222.43 84.33 222.853 86.9216 222.274C88.3315 221.961 90.1747 220.67 91.3327 220.709C92.4906 220.748 94.6725 220.764 95.5311 220.177C96.3897 219.591 96.051 218.331 95.8068 217.251C95.5626 216.172 95.1609 214.279 94.767 214.357V214.725C94.2629 215.507 91.6871 215.796 90.5765 215.241V214.615Z" fill="#263238"/>
<path d="M84.9524 148.955C84.0623 147.304 83.8418 147.234 83.3062 146.874C82.7705 146.514 79.5331 146.029 78.1861 145.919C76.6107 145.786 76.0357 146.076 76.4768 147.429C77.6966 150.84 79.1819 154.152 80.9194 157.334C81.3448 157.889 81.4314 158.405 83.2116 158.577C84.9918 158.75 86.9689 158.828 87.5834 158.867C88.1978 158.906 89.0485 159.055 88.4971 157.255C87.7934 155.224 86.9809 153.231 86.0631 151.286C85.4172 149.808 84.9524 148.955 84.9524 148.955Z" fill="#37474F"/>
<path d="M117.24 153.915C117.201 153.398 115.665 147.562 114.877 144.863L109.111 146.835L110.466 151.083L115.539 156.301C116.077 156.196 116.553 155.89 116.87 155.446C117.187 155.001 117.319 154.453 117.24 153.915Z" fill="#FFA8A7"/>
<path d="M110.442 151.083C110.442 151.083 94.5466 152.773 92.6798 152.201C90.8129 151.63 88.308 149.776 86.9611 149.01C85.6141 148.243 84.6452 148.18 84.6452 148.501C84.6452 148.822 85.7953 150.566 86.0631 151.286C86.3309 152.006 84.8185 152.014 82.8493 151.56C80.88 151.106 80.0845 149.995 79.5646 150.637C79.0447 151.278 80.6595 154.548 83.9363 155.777C87.2131 157.005 89.6471 156.191 92.3568 156.301C95.0665 156.41 111.758 157.474 115.515 156.301C115.615 155.704 115.546 155.091 115.317 154.531C115.087 153.97 114.706 153.483 114.215 153.125C113.09 152.226 111.813 151.535 110.442 151.083Z" fill="#FFA8A7"/>
<path d="M104.117 130.703C106.614 131.525 111.569 131.939 113.168 137.306C114.767 142.673 115.57 146.154 115.57 146.154C114.625 147.406 110.844 148.853 109.111 148.313L104.117 130.703Z" fill="#455A64"/>
<path d="M109.111 148.313L107.402 142.289L109.111 150.77V148.313Z" fill="#37474F"/>
<path d="M73.2547 160.971C73.1759 161.073 72.5064 162.176 72.5064 162.176L69.4265 166.557L66.4253 171.024C66.3308 171.16 66.1952 171.263 66.0381 171.318C65.881 171.373 65.7105 171.377 65.551 171.329L65.3462 171.259C64.3064 170.875 62.7468 170.226 60.6751 169.279C59.0131 168.497 59.0997 168.27 59.0997 167.989C59.0781 167.765 59.0781 167.54 59.0997 167.316C59.4384 166.674 60.4861 165.071 61.8961 163.044C64.4009 159.43 65.6061 157.826 66.3544 156.786C66.4612 156.634 66.6188 156.525 66.7991 156.477C66.9794 156.43 67.1707 156.448 67.3391 156.528C68.686 156.974 71.4193 158.139 72.853 158.718H72.916C73.6879 159.133 73.2626 160.94 73.2547 160.971Z" fill="#37474F"/>
<path d="M73.3338 160.83L72.5461 162.176L69.5371 166.643L66.3863 171.001C66.2917 171.137 66.1561 171.239 65.999 171.294C65.842 171.349 65.6714 171.353 65.5119 171.306L65.3071 171.235C64.2673 170.852 62.7077 170.203 60.6361 169.256C58.974 168.474 59.0607 168.247 59.0607 167.965C59.039 167.741 59.039 167.516 59.0607 167.292C60.6361 167.981 65.6222 170.328 65.7876 170.242C66.1815 170.054 69.5607 164.672 71.3566 161.926C72.2546 160.556 72.6563 159.978 72.932 159.508C72.9827 159.452 73.0204 159.386 73.0425 159.314C73.0646 159.242 73.0707 159.166 73.0602 159.092C73.0496 159.017 73.0229 158.946 72.9817 158.883C72.9405 158.819 72.8859 158.766 72.8218 158.726H72.7587C72.9356 158.819 73.0883 158.951 73.2045 159.113C73.3208 159.274 73.3974 159.461 73.4283 159.657C73.5142 159.844 73.5506 160.05 73.534 160.256C73.5175 160.461 73.4486 160.659 73.3338 160.83Z" fill="#37474F"/>
<path opacity="0.1" d="M73.3338 160.83L72.5461 162.176L69.5371 166.643L66.3863 171.001C66.2917 171.137 66.1561 171.239 65.999 171.294C65.842 171.349 65.6714 171.353 65.5119 171.306L65.3071 171.235C64.2673 170.852 62.7077 170.203 60.6361 169.256C58.974 168.474 59.0607 168.247 59.0607 167.965C59.039 167.741 59.039 167.516 59.0607 167.292C60.6361 167.981 65.6222 170.328 65.7876 170.242C66.1815 170.054 69.5607 164.672 71.3566 161.926C72.2546 160.556 72.6563 159.978 72.932 159.508C72.9827 159.452 73.0204 159.386 73.0425 159.314C73.0646 159.242 73.0707 159.166 73.0602 159.092C73.0496 159.017 73.0229 158.946 72.9817 158.883C72.9405 158.819 72.8859 158.766 72.8218 158.726H72.7587C72.9356 158.819 73.0883 158.951 73.2045 159.113C73.3208 159.274 73.3974 159.461 73.4283 159.657C73.5142 159.844 73.5506 160.05 73.534 160.256C73.5175 160.461 73.4486 160.659 73.3338 160.83Z" fill="black"/>
<path d="M66.3942 157.81L71.9238 160.11L66.0318 168.81L60.5337 166.299L66.3942 157.81Z" fill="#FAFAFA"/>
<path d="M64.8422 188.125C66.3546 187.695 68.6389 182.109 70.3561 175.773C72.0733 169.436 72.9791 168.035 73.0343 166.041C73.0894 164.046 72.9476 161.425 72.9476 161.425L69.9544 165.767C69.8245 164.929 69.5585 164.118 69.1667 163.365C68.7807 162.583 68.056 161.965 67.4652 162.434C67.1502 162.684 67.9851 163.756 67.804 166.15C67.7892 167.104 67.8843 168.057 68.0875 168.99L62.5264 182.368L64.8422 188.125Z" fill="#FFA8A7"/>
<path d="M42.4637 160.384C40.7071 159.892 39.2183 160.823 38.3912 163.6C36.9414 168.829 35.8882 174.158 35.2404 179.543C35.0041 181.476 34.7363 183.823 36.5953 184.003C38.0131 184.144 42.1092 183.361 42.826 182.657C43.787 181.734 43.6137 178.01 43.6137 178.01H41.4869C41.4869 178.01 41.9438 175.076 42.0777 174.185C42.5503 171.188 43.2514 167.41 43.2514 167.41L42.4637 160.384Z" fill="#F28F8F"/>
<path d="M52.7746 157.638L52.0578 163.905L45.835 164.625L46.7329 156.308L52.7746 157.638Z" fill="#FFA8A7"/>
<path d="M39.4546 148.493C39.9666 142.704 43.1253 140.326 45.5671 139.747C50.4981 138.597 55.3661 140.24 57.3826 143.658C57.8442 144.729 58.0822 145.881 58.0822 147.046C58.0822 148.21 57.8442 149.363 57.3826 150.433C56.3114 152.858 39.4782 148.477 39.4782 148.477" fill="#263238"/>
<path d="M57.6897 151.607C57.6897 151.607 58.5798 153.994 58.3435 154.174C57.972 154.307 57.5804 154.376 57.1855 154.377L57.6897 151.607Z" fill="#FFA8A7"/>
<path d="M55.0354 144.065C56.209 145.067 58.1862 146.882 57.6584 151.888C57.0755 157.067 55.8152 158.468 54.9645 158.968C54.3973 159.305 51.8846 158.718 50.7188 158.038C49.2694 157.185 46.0556 154.986 45.0788 152.021C43.9209 148.532 44.5038 144.37 47.0402 143.283C48.3308 142.731 49.7411 142.514 51.1393 142.651C52.5375 142.788 53.878 143.274 55.0354 144.065Z" fill="#FFA8A7"/>
<path d="M56.4847 144.199C56.5098 145.583 56.2205 146.956 55.6382 148.214C55.0559 149.472 54.1956 150.584 53.1212 151.467C53.1212 151.467 52.3886 149.581 50.7581 150.011C49.1276 150.442 49.1827 152.577 50.3485 153.735C50.6507 154.066 51.0418 154.305 51.4758 154.422C51.9097 154.54 52.3685 154.533 52.7982 154.4C52.5658 155.88 51.8683 157.249 50.8054 158.312C49.1091 158.699 47.3373 158.604 45.6932 158.037C44.0491 157.469 42.5994 156.453 41.5105 155.104C37.9107 150.809 38.9741 143.988 44.5983 141.977C46.5869 141.184 48.762 140.973 50.8677 141.366C52.9735 141.76 54.9222 142.743 56.4847 144.199Z" fill="#263238"/>
<path d="M45.0866 251.916L47.7726 255.624C46.5491 256.174 45.216 256.441 43.8735 256.406C41.471 256.5 40.8094 255.718 40.7227 255.53C40.3131 254.662 40.9512 253.105 41.1244 251.767L45.0866 251.916Z" fill="#263238"/>
<path d="M47.6073 253.833C47.6073 253.833 50.8605 253.621 53.1212 253.34C55.3819 253.058 57.1543 254.122 56.6265 255.069C56.0987 256.015 54.8542 256.759 52.9243 257.416C51.278 257.971 49.293 258.37 47.5679 258.879C45.8429 259.387 44.6692 260.013 43.6688 259.661C42.5503 259.278 42.0934 258.832 42.1643 258.026C42.4083 256.877 42.7107 255.741 43.0702 254.623L47.6073 253.833Z" fill="#263238"/>
<path d="M40.7227 248.176C40.7227 248.176 41.1244 251.54 41.1559 252.268C41.1874 252.996 44.4642 253.222 45.0944 251.9L45.1968 247.785L40.7227 248.176Z" fill="#F28F8F"/>
<path d="M44.0233 250.25L42.8811 255.358C42.8811 255.358 42.763 255.976 45.449 256.375C48.1351 256.774 52.3257 254.983 53.0425 254.623C53.7593 254.263 53.8302 253.535 51.2071 253.676C48.5841 253.817 47.6467 253.833 47.6467 253.833L48.5053 251.564L44.0233 250.25Z" fill="#FFA8A7"/>
<path d="M40.7228 181.859C38.4778 185.325 36.3511 188.376 35.8942 192.272C34.9332 200.502 38.084 209.905 38.7535 215.992C37.4799 217.724 36.7434 219.788 36.6346 221.93C36.6346 224.449 40.7228 248.177 40.7228 248.177C40.7228 248.177 43.6924 249.076 45.189 247.785L48.0011 204.132L46.5203 198.82L40.7228 181.859Z" fill="#455A64"/>
<path d="M48.0011 204.132L46.5202 198.82C43.733 198.1 41.0434 197.049 38.5093 195.691C38.5093 195.691 40.0295 198.429 44.3698 199.931L46.6305 206.76L46.8274 222.407L48.0011 204.132Z" fill="#37474F"/>
<path d="M40.7227 181.859C39.5254 183.799 36.6503 187.132 37.2647 190.324C38.0052 194.235 40.1005 196.919 46.5202 198.82L52.5382 220.467C52.5382 220.467 49.3874 223.385 48.4501 226.154C47.5127 228.924 44.0232 250.25 44.0232 250.25C44.0232 250.25 45.0945 251.986 48.4816 251.564C48.4816 251.564 60.2971 224.816 61.0848 223.095C62.0926 221.334 62.4466 219.277 62.0852 217.283C61.7071 214.482 57.6898 183.799 57.6898 183.799L40.7227 181.859Z" fill="#455A64"/>
<path d="M39.6278 162.325C39.8693 161.686 40.3242 161.15 40.9165 160.805C41.5088 160.461 42.2024 160.329 42.881 160.431C47.0794 161.566 53.6095 163.06 54.8462 163.42C54.8462 163.42 54.2869 171.454 59.1234 174.286C58.8949 176.078 57.6661 183.799 57.6661 183.799C57.6661 183.799 51.8529 186.6 47.0716 185.223C42.2902 183.846 40.6833 181.859 40.6833 181.859L43.0464 177.987C42.5344 176.727 40.5573 172.448 39.2812 168.474C38.8384 166.43 38.9582 164.306 39.6278 162.325Z" fill="#FFB900"/>
<path d="M42.4639 176.461C44.4525 177.649 46.5365 178.672 48.6946 179.52C46.7331 179.47 44.8157 178.932 43.1177 177.955L42.4639 176.461Z" fill="#E0E0E0"/>
<path d="M59.0212 173.684C57.3031 172.902 55.8895 171.583 54.9961 169.929C55.141 171.2 55.5797 172.42 56.2779 173.495C56.9761 174.57 57.915 175.47 59.0212 176.125V173.684Z" fill="#E0E0E0"/>
<path d="M54.8858 163.42C57.5246 164.202 59.163 164.452 60.5887 165.72C62.4634 167.394 64.4012 176.86 64.795 178.816C65.4803 182.203 66.2365 185.724 65.4961 187.304C64.9605 188.446 62.046 189.299 60.7699 185.606C60.5021 184.824 60.4469 184.464 60.2106 183.76C59.0054 180.224 57.1937 173.465 57.1937 173.465C57.1937 173.465 53.6254 171.509 54.8858 163.42Z" fill="#FFA8A7"/>
<path d="M42.0935 141.977C41.1561 142.517 39.4626 143.041 38.407 147.931C37.5477 152.033 37.0366 156.199 36.8789 160.385C36.9183 161.903 40.0848 166.12 46.7645 165.721C53.4442 165.322 55.8703 161.434 55.8703 161.434C55.8703 161.434 52.5856 160.104 52.8456 154.393C52.8456 154.393 51.6877 156.654 48.5132 155.519C45.3388 154.385 42.0935 141.977 42.0935 141.977Z" fill="#263238"/>
</svg>
