<svg xmlns="http://www.w3.org/2000/svg" aria-hidden="true" style="position:absolute;width:0;height:0;overflow:hidden">
    <defs>
        <symbol id="icon-logo-green" viewBox="0 0 35 32">
            <path fill="#02bc6b" d="M2.71 29.802A2.718 2.718 0 0 1 0 27.092v-9.473h6.821v-.011h4.099c1.057-.027 1.951-.948 1.951-2.032a2.047 2.047 0 0 0-2.032-2.032L0 13.546v-2.711c0-1.49 1.219-2.71 2.71-2.71h8.129c2.059 0 3.821.732 5.257 2.195 1.463 1.436 2.195 3.197 2.195 5.257 0 2.032-.705 3.794-2.141 5.23s-3.17 2.195-5.203 2.222H5.419v4.065c0 1.49-1.219 2.71-2.71 2.71z" style="fill:var(--color1, #02bc6b)"/>
            <path fill="#02897a" d="M21.706 4.98c2.994 2.908 4.502 6.529 4.502 10.646 0 4.048-1.445 7.666-4.393 10.583l-4.185-3.937c1.833-1.814 2.733-3.998 2.733-6.645 0-2.667-.927-4.848-2.804-6.671l4.146-3.975z" style="fill:var(--color2, #02897a)"/>
            <path fill="#035b81" d="M28.113 0c4.312 4.305 6.482 9.643 6.482 15.77 0 6.031-2.082 11.366-6.323 15.68l-4.039-3.946c3.159-3.214 4.707-7.112 4.707-11.734 0-4.669-1.6-8.563-4.828-11.786L28.114 0z" style="fill:var(--color3, #035b81)"/>
            <path fill="#028e37" d="M0 23.051h5.419v4.042c0 1.49-1.219 2.71-2.71 2.71s-2.71-1.219-2.71-2.71v-4.042z" style="fill:var(--color4, #028e37)"/>
        </symbol>
        <symbol id="icon-facebook" viewBox="0 0 32 32">
            <path stroke-linecap="round" stroke-linejoin="round" stroke-width="2.667" d="M24 2.667h-4a6.67 6.67 0 0 0-6.667 6.667v4h-4v5.333h4v10.667h5.333V18.667h4l1.333-5.333h-5.333v-4A1.334 1.334 0 0 1 20 8h4V2.667z"/>
        </symbol>
        <symbol id="icon-instagram" viewBox="0 0 32 32">
            <path stroke-linecap="round" stroke-linejoin="round" stroke-width="2.667" d="M22.667 2.667H9.334a6.667 6.667 0 0 0-6.667 6.667v13.333a6.667 6.667 0 0 0 6.667 6.667h13.333a6.667 6.667 0 0 0 6.667-6.667V9.334a6.667 6.667 0 0 0-6.667-6.667z"/>
            <path stroke-linecap="round" stroke-linejoin="round" stroke-width="2.667" d="M21.333 15.16a5.338 5.338 0 0 1-6.123 6.049 5.334 5.334 0 1 1 6.124-6.048zm2-6.493h.013"/>
        </symbol>
        <symbol id="icon-twitter" viewBox="0 0 32 32">
            <path stroke-linecap="round" stroke-linejoin="round" stroke-width="2.667" d="M30.667 4.013a14.542 14.542 0 0 1-4.187 2.04 5.975 5.975 0 0 0-6.637-1.661A5.979 5.979 0 0 0 16 10.053v1.333a14.211 14.211 0 0 1-12-6.04s-5.333 12 6.667 17.333a15.519 15.519 0 0 1-9.333 2.667c12 6.667 26.667 0 26.667-15.333a5.966 5.966 0 0 0-.107-1.107 10.288 10.288 0 0 0 2.773-4.893z"/>
        </symbol>
        <symbol id="icon-close-black" viewBox="0 0 32 32">
            <path d="M32 3.223 28.777 0 16 12.777 3.223 0 0 3.223 12.777 16 0 28.777 3.223 32 16 19.223 28.777 32 32 28.777 19.223 16 32 3.223z"/>
        </symbol>
        <symbol id="icon-triangle" viewBox="0 0 29 32">
            <path d="M27.343 14.302c1.269.728 1.269 2.558 0 3.287L3.701 31.159c-1.263.725-2.838-.187-2.838-1.643V2.376C.863.92 2.438.008 3.701.733l23.642 13.57z"/>
        </symbol>
        <symbol id="icon-time" viewBox="0 0 26 32">
            <path d="M23.664 2.628h1.614a.531.531 0 0 0 .538-.538V1.014a.53.53 0 0 0-.538-.538H.538A.53.53 0 0 0 0 1.014V2.09a.53.53 0 0 0 .538.538h1.613c0 6.218 2.975 10.723 6.269 12.908-3.294 2.185-6.269 6.689-6.269 12.908H.538a.53.53 0 0 0-.538.538v1.076c0 .302.235.538.538.538h24.74a.531.531 0 0 0 .538-.538v-1.076a.531.531 0 0 0-.538-.538h-1.614c0-6.218-2.975-10.723-6.269-12.908 3.294-2.185 6.269-6.689 6.269-12.908zm-2.151 0c0 2.454-.555 4.622-1.429 6.454H5.731c-.874-1.832-1.429-4-1.429-6.454h17.21zm-.958 20.437H5.261c1.244-3.244 3.479-5.546 5.714-6.454h3.866c2.235.908 4.471 3.21 5.714 6.454z"/>
        </symbol>
        <symbol id="icon-love" viewBox="0 0 34 32">
            <path d="M17.067 30.103c.305 0 .61-.114.838-.343l11.867-11.429c.171-.171 4.362-4 4.362-8.571 0-5.581-3.41-8.914-9.105-8.914-3.333 0-6.457 2.629-7.962 4.114C15.562 3.474 12.438.846 9.105.846 3.41.846 0 4.179 0 9.76c0 4.571 4.191 8.4 4.343 8.533L16.229 29.76c.229.229.533.343.838.343z"/>
        </symbol>
        <symbol id="icon-casino" viewBox="0 0 41 32">
            <path d="m21.673 12.824 2.674 1.245 3.98-1.184v-2.776c0-4.714-3.98-8.49-8.735-8.49-4.735 0-8.735 3.755-8.735 8.429v12.653c0 1.163-.939 2.082-2.082 2.082s-2.082-.918-2.082-2.082v-5.347H-.001v5.429a8.753 8.753 0 0 0 8.755 8.755c4.796 0 8.755-3.857 8.755-8.633v-12.49c0-1.143.939-2.082 2.082-2.082s2.082.939 2.082 2.082v2.408zm10.817 4.531v5.612c0 1.143-.939 2.061-2.082 2.061s-2.082-.918-2.082-2.061v-5.51l-3.98 1.184-2.674-1.245v5.469c0 4.796 3.939 8.673 8.755 8.673a8.753 8.753 0 0 0 8.755-8.755v-5.429h-6.694z"/>
        </symbol>
        <symbol id="icon-cursor" viewBox="0 0 21 32">
            <path d="M19.042 18.007 1.832.797a1.003 1.003 0 0 0-.756-.319C.942.478.79.512.673.562a1.079 1.079 0 0 0-.672.992v25.277c0 .437.269.824.672.992.118.05.269.084.403.084.286 0 .555-.118.756-.319l5.244-5.244 3.21 7.597a1.08 1.08 0 0 0 1.412.571l2.975-1.26a1.08 1.08 0 0 0 .571-1.412l-3.378-8h6.42c.437 0 .824-.269.992-.672a1.038 1.038 0 0 0-.235-1.16z"/>
        </symbol>
    </defs>
</svg>